<?xml version="1.0" standalone="no"?>
<!DOCTYPE svg PUBLIC "-//W3C//DTD SVG 20010904//EN"
 "http://www.w3.org/TR/2001/REC-SVG-20010904/DTD/svg10.dtd">
<svg version="1.0" xmlns="http://www.w3.org/2000/svg"
 width="214.000000pt" height="214.000000pt" viewBox="0 0 214.000000 214.000000"
 preserveAspectRatio="xMidYMid meet">
<metadata>
Created by potrace 1.11, written by Peter Selinger 2001-2013
</metadata>
<g transform="translate(0.000000,214.000000) scale(0.100000,-0.100000)"
fill="#000000" stroke="none">
<path d="M1350 2096 c-19 -7 -66 -29 -105 -49 -358 -181 -744 -573 -1019
-1035 -153 -259 -217 -403 -221 -504 -6 -113 26 -179 107 -223 43 -24 75 -31
203 -50 43 -7 79 -12 123 -20 100 -16 224 -35 261 -40 23 -3 46 -7 50 -9 3 -2
29 -6 56 -10 28 -3 59 -8 70 -10 11 -2 38 -6 60 -10 22 -3 123 -19 225 -35
242 -39 259 -41 300 -47 19 -2 42 -6 50 -9 8 -2 38 -7 65 -11 28 -3 70 -10 95
-14 61 -11 180 -4 243 14 147 43 219 138 220 291 0 80 -14 143 -70 320 -14 44
-29 94 -33 110 -4 17 -73 244 -153 505 -80 261 -165 538 -188 615 -23 77 -51
152 -61 167 -30 43 -94 68 -174 67 -38 0 -85 -6 -104 -13z"/>
</g>
</svg>
